<svg width="70" height="50" viewBox="0 0 70 50" fill="none" xmlns="http://www.w3.org/2000/svg">
<path d="M35 16.375C36.4375 10.7005 41.8668 7.803 53.6875 7.74999C53.8765 7.74928 54.0637 7.78598 54.2385 7.85797C54.4132 7.92996 54.5719 8.03581 54.7056 8.16944C54.8392 8.30307 54.945 8.46182 55.017 8.63655C55.089 8.81127 55.1257 8.99852 55.125 9.18749V35.0625C55.125 35.4437 54.9736 35.8094 54.704 36.079C54.4344 36.3485 54.0688 36.5 53.6875 36.5C42.1875 36.5 37.7447 38.8189 35 42.25M35 16.375C33.5625 10.7005 28.1333 7.803 16.3125 7.74999C16.1235 7.74928 15.9363 7.78598 15.7616 7.85797C15.5868 7.92996 15.4281 8.03581 15.2945 8.16944C15.1608 8.30307 15.055 8.46182 14.983 8.63655C14.911 8.81127 14.8743 8.99852 14.875 9.18749V34.8891C14.875 35.7768 15.4249 36.5 16.3125 36.5C27.8125 36.5 32.2715 38.8359 35 42.25M35 16.375V42.25" stroke="black" stroke-width="3" stroke-linecap="round" stroke-linejoin="round"/>
</svg>
