<svg width="16" height="16" viewBox="0 0 16 16" fill="none" xmlns="http://www.w3.org/2000/svg">
<path d="M7.59995 5C8.07495 3.02625 9.86897 2.01844 13.775 2C13.8374 1.99976 13.8993 2.01252 13.957 2.03756C14.0147 2.0626 14.0672 2.09942 14.1114 2.1459C14.1555 2.19238 14.1905 2.24759 14.2143 2.30837C14.2381 2.36914 14.2502 2.43427 14.25 2.5V11.5C14.25 11.6326 14.1999 11.7598 14.1108 11.8536C14.0218 11.9473 13.9009 12 13.775 12C9.97495 12 8.50691 12.8066 7.59995 14M7.59995 5C7.12495 3.02625 5.33094 2.01844 1.42495 2C1.36251 1.99976 1.30064 2.01252 1.2429 2.03756C1.18517 2.0626 1.13271 2.09942 1.08855 2.1459C1.0444 2.19238 1.00942 2.24759 0.985632 2.30837C0.961845 2.36914 0.949719 2.43427 0.949955 2.5V11.4397C0.949955 11.7484 1.13164 12 1.42495 12C5.22495 12 6.69834 12.8125 7.59995 14M7.59995 5V14" stroke="black" stroke-linecap="round" stroke-linejoin="round"/>
</svg>
