<svg width="46" height="46" viewBox="0 0 46 46" fill="none" xmlns="http://www.w3.org/2000/svg">
<path d="M23 14.375C24.4375 8.70048 29.8668 5.80302 41.6875 5.75001C41.8765 5.7493 42.0637 5.78599 42.2384 5.85798C42.4132 5.92997 42.5719 6.03583 42.7056 6.16945C42.8392 6.30308 42.945 6.46183 43.017 6.63656C43.089 6.81129 43.1257 6.99854 43.125 7.18751V33.0625C43.125 33.4438 42.9736 33.8094 42.704 34.079C42.4344 34.3486 42.0687 34.5 41.6875 34.5C30.1875 34.5 25.7447 36.8189 23 40.25M23 14.375C21.5625 8.70048 16.1332 5.80302 4.3125 5.75001C4.12353 5.7493 3.93628 5.78599 3.76155 5.85798C3.58682 5.92997 3.42807 6.03583 3.29445 6.16945C3.16082 6.30308 3.05496 6.46183 2.98297 6.63656C2.91098 6.81129 2.87429 6.99854 2.875 7.18751V32.8891C2.875 33.7768 3.42484 34.5 4.3125 34.5C15.8125 34.5 20.2714 36.8359 23 40.25M23 14.375V40.25" stroke="black" stroke-width="3" stroke-linecap="round" stroke-linejoin="round"/>
</svg>
