<svg width="70" height="50" viewBox="0 0 70 50" fill="none" xmlns="http://www.w3.org/2000/svg">
<path d="M13.125 14.8438C13.125 12.9789 13.8658 11.1905 15.1844 9.87191C16.503 8.55329 18.2914 7.8125 20.1562 7.8125H49.8438C51.7086 7.8125 53.497 8.55329 54.8156 9.87191C56.1342 11.1905 56.875 12.9789 56.875 14.8438V35.1562C56.875 37.0211 56.1342 38.8095 54.8156 40.1281C53.497 41.4467 51.7086 42.1875 49.8438 42.1875H20.1562C18.2914 42.1875 16.503 41.4467 15.1844 40.1281C13.8658 38.8095 13.125 37.0211 13.125 35.1562V14.8438ZM20.1562 10.9375C19.1202 10.9375 18.1267 11.3491 17.3941 12.0816C16.6616 12.8142 16.25 13.8077 16.25 14.8438V17.1875H53.75V14.8438C53.75 13.8077 53.3385 12.8142 52.6059 12.0816C51.8733 11.3491 50.8798 10.9375 49.8438 10.9375H20.1562ZM16.25 35.1562C16.25 36.1923 16.6616 37.1858 17.3941 37.9184C18.1267 38.6509 19.1202 39.0625 20.1562 39.0625H49.8438C50.8798 39.0625 51.8733 38.6509 52.6059 37.9184C53.3385 37.1858 53.75 36.1923 53.75 35.1562V20.3125H16.25V35.1562ZM42.8125 29.6875H47.5C47.9144 29.6875 48.3118 29.8521 48.6049 30.1451C48.8979 30.4382 49.0625 30.8356 49.0625 31.25C49.0625 31.6644 48.8979 32.0618 48.6049 32.3549C48.3118 32.6479 47.9144 32.8125 47.5 32.8125H42.8125C42.3981 32.8125 42.0007 32.6479 41.7076 32.3549C41.4146 32.0618 41.25 31.6644 41.25 31.25C41.25 30.8356 41.4146 30.4382 41.7076 30.1451C42.0007 29.8521 42.3981 29.6875 42.8125 29.6875Z" fill="black"/>
</svg>
