<svg width="70" height="50" viewBox="0 0 70 50" fill="none" xmlns="http://www.w3.org/2000/svg">
<g clip-path="url(#clip0_2015_18)">
<path d="M45.09 24.2401L50.5488 29.7639L53.2782 26.4496M51.3286 24.2401L56.7874 29.7639L65.8854 18.7163M59.6468 18.7163L56.0076 23.1353" stroke="black" stroke-width="3" stroke-linecap="round" stroke-linejoin="round"/>
</g>
<path d="M27.6177 9H12.1176C9.6995 9 7.38039 9.96061 5.6705 11.6705C3.96061 13.3804 3 15.6995 3 18.1176V30.8824C3 32.0797 3.23584 33.2653 3.69404 34.3715C4.15224 35.4777 4.82385 36.4829 5.6705 37.3295C7.38039 39.0394 9.6995 40 12.1176 40H27.6177C28.815 40 30.0006 39.7642 31.1068 39.306C32.213 38.8478 33.2182 38.1762 34.0648 37.3295C34.9115 36.4829 35.5831 35.4777 36.0413 34.3715C36.4995 33.2653 36.7353 32.0797 36.7353 30.8824V18.1176C36.7353 16.9203 36.4995 15.7347 36.0413 14.6285C35.5831 13.5223 34.9115 12.5171 34.0648 11.6705C33.2182 10.8238 32.213 10.1522 31.1068 9.69404C30.0006 9.23583 28.815 9 27.6177 9Z" stroke="black" stroke-width="3" stroke-linecap="round" stroke-linejoin="round"/>
<path d="M3.45581 33.6177L8.47052 27.7824C9.1267 27.1306 9.98789 26.7257 10.9084 26.6359C11.8288 26.5462 12.752 26.7773 13.5217 27.29C14.2914 27.8027 15.2146 28.0338 16.135 27.9441C17.0555 27.8543 17.9167 27.4494 18.5729 26.7977L22.8217 22.5488C24.0425 21.3238 25.6589 20.5725 27.3824 20.4289C29.1059 20.2853 30.8244 20.7587 32.2311 21.7647L36.7717 25.2841M12.5735 21.1629C12.971 21.1629 13.3646 21.0846 13.7319 20.9325C14.0991 20.7804 14.4328 20.5574 14.7139 20.2763C14.995 19.9953 15.218 19.6616 15.3701 19.2943C15.5222 18.927 15.6005 18.5334 15.6005 18.1359C15.6005 17.7384 15.5222 17.3447 15.3701 16.9775C15.218 16.6102 14.995 16.2765 14.7139 15.9954C14.4328 15.7143 14.0991 15.4914 13.7319 15.3393C13.3646 15.1871 12.971 15.1088 12.5735 15.1088C11.7706 15.1088 11.0007 15.4278 10.433 15.9954C9.86532 16.5631 9.5464 17.3331 9.5464 18.1359C9.5464 18.9387 9.86532 19.7087 10.433 20.2763C11.0007 20.844 11.7706 21.1629 12.5735 21.1629Z" stroke="black" stroke-width="3" stroke-linecap="round" stroke-linejoin="round"/>
<defs>
<clipPath id="clip0_2015_18">
<rect width="24.9545" height="26.5142" fill="white" transform="translate(43.0104 10.983)"/>
</clipPath>
</defs>
</svg>
