<svg width="20" height="20" viewBox="0 0 20 20" fill="none" xmlns="http://www.w3.org/2000/svg">
<path d="M8.74 1.33878C9.10867 1.13082 9.52028 1.0152 9.94107 1.0014C10.3619 0.987601 10.7799 1.07602 11.1608 1.2594L11.3128 1.33878L16.7328 4.608L16.8096 4.65955L16.8832 4.72256L16.9688 4.78394C17.247 4.99707 17.4801 5.26557 17.6542 5.57327C17.8282 5.88098 17.9396 6.22154 17.9816 6.57444L17.996 6.73974L18 6.90668V12.8674C18 13.7725 17.544 14.6096 16.8368 15.0711L16.7008 15.153L11.2584 18.6734C10.524 19.0859 9.6432 19.1112 8.8552 18.7291L8.6984 18.6472L3.3424 15.18C2.96142 14.9665 2.63921 14.6582 2.40556 14.2836C2.17191 13.909 2.03435 13.4802 2.0056 13.0368L2 12.8674V6.90586C2 6.00079 2.456 5.16446 3.1808 4.69229L8.74 1.33878ZM10 12.4566C9.80405 12.4566 9.61493 12.5302 9.4685 12.6634C9.32207 12.7966 9.22853 12.9801 9.2056 13.1792L9.2 13.2749L9.2056 13.3788C9.22873 13.5777 9.32236 13.761 9.46877 13.8941C9.61518 14.0271 9.80419 14.1005 10 14.1005C10.1958 14.1005 10.3848 14.0271 10.5312 13.8941C10.6776 13.761 10.7713 13.5777 10.7944 13.3788L10.8 13.2831L10.7944 13.1792C10.7715 12.9801 10.6779 12.7966 10.5315 12.6634C10.3851 12.5302 10.1959 12.4566 10 12.4566ZM11.0944 6.99588C10.6155 6.74544 10.0679 6.66801 9.54055 6.77617C9.0132 6.88432 8.5371 7.1717 8.1896 7.59162C8.05711 7.75038 7.98893 7.95493 7.99902 8.16342C8.00912 8.3719 8.09671 8.56856 8.24389 8.71315C8.39107 8.85774 8.58671 8.93934 8.79076 8.94124C8.99482 8.94314 9.19187 8.8652 9.3416 8.72337L9.4784 8.57607C9.59642 8.46526 9.7448 8.39408 9.90357 8.37214C10.0623 8.35019 10.2239 8.37853 10.3664 8.45332C10.5201 8.53288 10.6445 8.66103 10.7213 8.81874C10.7981 8.97644 10.823 9.15528 10.7925 9.32866C10.7619 9.50203 10.6775 9.66069 10.5517 9.78105C10.4259 9.90141 10.2656 9.97704 10.0944 9.99669L9.9088 10.0065C9.70533 10.0294 9.51818 10.1312 9.38587 10.291C9.25356 10.4508 9.18615 10.6563 9.19753 10.8654C9.20891 11.0745 9.2982 11.2711 9.44703 11.4149C9.59586 11.5587 9.7929 11.6386 9.9976 11.6383C10.5373 11.6399 11.0618 11.4555 11.4864 11.1146C11.911 10.7738 12.2109 10.2966 12.3377 9.75998C12.4644 9.22336 12.4107 8.65869 12.1851 8.15716C11.9595 7.65563 11.5753 7.24652 11.0944 6.99588Z" fill="black"/>
</svg>
