<svg width="46" height="46" viewBox="0 0 46 46" fill="none" xmlns="http://www.w3.org/2000/svg">
<path d="M32.1867 4.58334H13.77C10.8968 4.58334 8.14131 5.72471 6.10967 7.75635C4.07803 9.788 2.93666 12.5435 2.93666 15.4167V30.5833C2.93666 32.006 3.21687 33.4147 3.7613 34.7291C4.30573 36.0434 5.1037 37.2377 6.10967 38.2437C8.14131 40.2753 10.8968 41.4167 13.77 41.4167H32.1867C33.6093 41.4167 35.018 41.1365 36.3324 40.592C37.6468 40.0476 38.841 39.2496 39.847 38.2437C40.853 37.2377 41.6509 36.0434 42.1954 34.7291C42.7398 33.4147 43.02 32.006 43.02 30.5833V15.4167C43.02 13.994 42.7398 12.5853 42.1954 11.2709C41.6509 9.95658 40.853 8.76232 39.847 7.75635C38.841 6.75039 37.6468 5.95241 36.3324 5.40798C35.018 4.86356 33.6093 4.58334 32.1867 4.58334Z" stroke="black" stroke-width="3" stroke-linecap="round" stroke-linejoin="round"/>
<path d="M3.47833 33.8333L9.43667 26.9C10.2163 26.1257 11.2396 25.6445 12.3332 25.5379C13.4269 25.4313 14.5238 25.7058 15.4383 26.315C16.3528 26.9242 17.4498 27.1987 18.5434 27.0921C19.6371 26.9855 20.6603 26.5044 21.44 25.73L26.4883 20.6817C27.9389 19.2262 29.8594 18.3335 31.9072 18.1628C33.955 17.9922 35.9969 18.5547 37.6683 19.75L43.0633 23.9317M14.3117 19.035C14.784 19.035 15.2517 18.942 15.6881 18.7612C16.1244 18.5805 16.5209 18.3155 16.8549 17.9816C17.1889 17.6476 17.4538 17.2511 17.6346 16.8147C17.8153 16.3784 17.9083 15.9107 17.9083 15.4383C17.9083 14.966 17.8153 14.4983 17.6346 14.062C17.4538 13.6256 17.1889 13.2291 16.8549 12.8951C16.5209 12.5611 16.1244 12.2962 15.6881 12.1155C15.2517 11.9347 14.784 11.8417 14.3117 11.8417C13.3578 11.8417 12.4429 12.2206 11.7684 12.8951C11.0939 13.5696 10.715 14.4844 10.715 15.4383C10.715 16.3922 11.0939 17.3071 11.7684 17.9816C12.4429 18.6561 13.3578 19.035 14.3117 19.035Z" stroke="black" stroke-width="3" stroke-linecap="round" stroke-linejoin="round"/>
</svg>
