<svg width="212" height="212" viewBox="0 0 212 212" fill="none" xmlns="http://www.w3.org/2000/svg">
<path d="M96.2874 211.556C99.4926 211.852 102.765 212 106.003 212L105.997 211.993C109.276 211.993 112.588 211.845 115.833 211.543C117.275 211.409 118.334 210.132 118.2 208.694C118.066 207.25 116.785 206.195 115.357 206.323C109.215 206.894 102.892 206.894 96.7635 206.336C95.3219 206.209 94.0546 207.27 93.9205 208.708C93.7864 210.152 94.8525 211.422 96.2874 211.556Z" fill="#64A553"/>
<path d="M77.0635 207.989C77.2982 208.056 77.5396 208.09 77.7742 208.09H77.7809C78.9208 208.09 79.9669 207.337 80.2954 206.182C80.691 204.791 79.8797 203.346 78.4917 202.95C72.5374 201.264 66.7039 199 61.1519 196.232C59.8578 195.587 58.2888 196.111 57.6451 197.407C57.0013 198.704 57.5244 200.276 58.8185 200.921C64.6588 203.83 70.7941 206.208 77.0635 207.989Z" fill="#64A553"/>
<path d="M131.832 206.161C132.16 207.309 133.204 208.061 134.343 208.063H134.34H134.346H134.343C134.577 208.062 134.817 208.029 135.057 207.962C141.32 206.182 147.455 203.79 153.289 200.874C154.583 200.229 155.106 198.657 154.462 197.36C153.818 196.064 152.249 195.54 150.955 196.185C145.41 198.959 139.583 201.223 133.629 202.923C132.241 203.32 131.436 204.771 131.832 206.161Z" fill="#64A553"/>
<path d="M42.1827 190.602C42.6588 190.958 43.2087 191.132 43.7585 191.132V191.126C44.5564 191.126 45.3342 190.763 45.8505 190.084C46.7222 188.929 46.4942 187.289 45.3409 186.416C40.3925 182.681 35.7658 178.461 31.5884 173.873C30.6162 172.804 28.96 172.731 27.8939 173.705C26.8277 174.679 26.754 176.338 27.7262 177.407C32.1182 182.23 36.9862 186.671 42.1827 190.602Z" fill="#64A553"/>
<path d="M166.25 190.024C166.76 190.709 167.544 191.065 168.335 191.065H168.342C168.892 191.065 169.448 190.891 169.918 190.534C175.108 186.597 179.969 182.15 184.361 177.326C185.34 176.258 185.259 174.598 184.193 173.624C183.127 172.65 181.471 172.724 180.499 173.792C176.321 178.381 171.701 182.607 166.76 186.356C165.606 187.229 165.378 188.868 166.25 190.024Z" fill="#64A553"/>
<path d="M15.9116 161.793C16.4078 162.592 17.2661 163.029 18.1377 163.029V163.022C18.6138 163.022 19.0898 162.895 19.519 162.626C20.746 161.86 21.1215 160.248 20.3572 159.018C17.0783 153.744 14.2822 148.141 12.0427 142.363C11.5197 141.013 10.0042 140.348 8.65649 140.872C7.30872 141.396 6.6449 142.914 7.16791 144.265C9.52148 150.345 12.4651 156.244 15.9116 161.793Z" fill="#64A553"/>
<path d="M192.548 162.539C192.977 162.807 193.453 162.935 193.923 162.935V162.928C194.801 162.928 195.653 162.492 196.149 161.692C199.589 156.136 202.525 150.231 204.879 144.15C205.402 142.8 204.732 141.282 203.384 140.758C202.036 140.234 200.521 140.905 199.998 142.256C197.765 148.04 194.975 153.65 191.703 158.931C190.945 160.16 191.321 161.78 192.548 162.539Z" fill="#64A553"/>
<path d="M1.80371 125.419C2.03839 126.676 3.13806 127.556 4.37183 127.556V127.563C4.53278 127.563 4.69366 127.542 4.85461 127.516C6.27612 127.247 7.21484 125.883 6.94666 124.459C5.81348 118.385 5.23682 112.144 5.2301 105.909C5.2301 104.458 4.0567 103.289 2.61505 103.289C1.16669 103.289 0 104.465 0 105.909C0.00671387 112.466 0.616882 119.03 1.80371 125.419Z" fill="#64A553"/>
<path d="M207.391 127.429C207.477 127.438 207.563 127.442 207.648 127.442C208.882 127.442 209.982 126.562 210.216 125.298C211.397 118.909 212 112.345 212 105.768V105.553C212 104.109 210.827 102.933 209.385 102.933C207.943 102.933 206.77 104.109 206.77 105.553V105.788C206.77 112.016 206.2 118.258 205.073 124.338C204.805 125.762 205.744 127.133 207.165 127.395C207.241 127.41 207.316 127.422 207.391 127.429Z" fill="#64A553"/>
<path d="M3.86224 89.4489C4.02313 89.4825 4.18408 89.496 4.33832 89.496H4.3316C5.56537 89.496 6.66504 88.6159 6.89972 87.3528C8.02618 81.2458 9.7226 75.2126 11.9554 69.428C12.4785 68.0776 11.8079 66.566 10.4602 66.0419C9.11243 65.5179 7.60376 66.1897 7.08075 67.5401C4.73389 73.627 2.9436 79.976 1.76349 86.3988C1.50195 87.8231 2.44073 89.1869 3.86224 89.4489Z" fill="#64A553"/>
<path d="M205.033 87.0102C205.268 88.2665 206.368 89.1466 207.601 89.1466C207.762 89.1466 207.93 89.1332 208.091 89.0996C209.506 88.8376 210.444 87.467 210.176 86.0427C208.969 79.6266 207.159 73.2844 204.792 67.2042C204.269 65.8538 202.747 65.1887 201.406 65.7127C200.058 66.2368 199.394 67.7551 199.917 69.1055C202.17 74.8834 203.887 80.9098 205.033 87.0102Z" fill="#64A553"/>
<path d="M16.6357 53.5994C17.0639 53.8608 17.5388 53.9885 18.0071 53.9891H18.0036H18.0103H18.0071C18.8843 53.9879 19.7342 53.5446 20.2297 52.7462C23.4885 47.4722 27.2568 42.467 31.4275 37.8716C32.3998 36.8033 32.3193 35.1439 31.2532 34.1697C30.1871 33.1955 28.5308 33.2762 27.5586 34.3444C23.1733 39.1816 19.2106 44.4422 15.7842 49.9916C15.0265 51.2211 15.4087 52.8402 16.6357 53.5994Z" fill="#64A553"/>
<path d="M191.589 52.4573C192.085 53.2568 192.937 53.6935 193.809 53.6935V53.6867C194.285 53.6867 194.761 53.5591 195.19 53.2903C196.417 52.5244 196.792 50.912 196.028 49.6826C192.582 44.1466 188.605 38.8928 184.2 34.0757C183.228 33.0074 181.572 32.9402 180.505 33.9144C179.439 34.8886 179.366 36.548 180.344 37.6163C184.535 42.205 188.317 47.1967 191.589 52.4573Z" fill="#64A553"/>
<path d="M41.4921 24.7975C42.0084 25.4761 42.7862 25.8321 43.5775 25.8321C44.1273 25.8321 44.6838 25.6575 45.1532 25.3014C50.095 21.5458 55.4055 18.2336 60.9373 15.4589C62.2314 14.8139 62.7477 13.2418 62.1041 11.9451C61.4603 10.6485 59.8846 10.1244 58.5972 10.7761C52.777 13.6919 47.1916 17.1788 41.995 21.1292C40.8417 22.0026 40.6204 23.6419 41.4921 24.7975Z" fill="#64A553"/>
<path d="M166.579 25.0864C167.048 25.4425 167.598 25.6171 168.148 25.6171L168.154 25.6104C168.946 25.6104 169.73 25.2543 170.246 24.5691C171.111 23.4135 170.883 21.7742 169.73 20.9008C164.513 16.9638 158.914 13.5038 153.088 10.6015C151.794 9.9565 150.224 10.4872 149.581 11.7839C148.937 13.0806 149.467 14.6527 150.761 15.2976C156.299 18.0522 161.623 21.3442 166.579 25.0864Z" fill="#64A553"/>
<path d="M75.0251 6.89288C75.3536 8.04173 76.3997 8.7942 77.5396 8.7942H77.5463C77.7809 8.7942 78.0223 8.7606 78.2637 8.69342C84.2113 6.99367 90.3533 5.83809 96.5355 5.26031C97.9705 5.12595 99.0299 3.84273 98.8958 2.40498C98.7549 0.967239 97.4877 -0.0942847 96.046 0.0400842C89.5419 0.651473 83.0714 1.86751 76.8221 3.6546C75.4341 4.05099 74.6295 5.50217 75.0251 6.89288Z" fill="#64A553"/>
<path d="M133.408 8.59936C133.642 8.66655 133.884 8.70015 134.118 8.70015V8.69342C135.258 8.69342 136.304 7.94096 136.633 6.7854C137.022 5.39468 136.211 3.9435 134.823 3.55383C128.567 1.78688 122.096 0.591003 115.592 0.00649964C114.15 -0.121155 112.883 0.940353 112.756 2.38483C112.628 3.82257 113.688 5.09907 115.129 5.22671C121.311 5.78435 127.46 6.91977 133.408 8.59936Z" fill="#64A553"/>
<path fill-rule="evenodd" clip-rule="evenodd" d="M167.528 79.627C173.516 79.627 178.384 84.7599 178.384 91.0685L178.398 91.0618C178.398 95.7714 175.675 99.8293 171.806 101.576C173.288 103.538 174.187 106.017 174.187 108.711C174.187 113.421 171.471 117.479 167.595 119.225C169.077 121.187 169.976 123.666 169.976 126.36C169.976 131.07 167.254 135.128 163.385 136.875C164.866 138.837 165.765 141.316 165.765 144.01C165.765 150.318 160.897 155.451 154.909 155.451H124.367C106.846 155.451 100.261 151.743 94.4546 148.471L94.3297 148.401C92.8668 147.58 91.4741 146.798 89.942 146.099C88.4802 145.434 85.5232 145.098 83.0422 144.977C81.6006 153.597 74.1108 160.194 65.0989 160.194H39.2569C36.3602 160.194 34 157.829 34 154.927V81.9919C34 79.0895 36.3602 76.7246 39.2569 76.7246H78.0334C80.9301 76.7246 83.2903 79.0895 83.2903 81.9919V86.164H88.6009C106.504 86.164 110.527 64.786 110.527 57.295V55.7146C110.5 49.2081 110.47 41.8327 114.517 37.7578C116.361 35.9035 118.808 34.9629 121.799 34.9629C130.106 34.9629 134.317 42.6555 134.317 57.8391C134.317 67.0299 134.25 75.4952 134.21 79.627H167.528ZM65.0923 154.961C72.2468 154.961 78.067 149.129 78.067 141.961V81.9919L39.2502 81.9583L39.2167 154.927L65.0923 154.961ZM159.744 97.283H167.522V97.2696C170.633 97.2696 173.161 94.4814 173.161 91.0618C173.161 87.6421 170.633 84.8539 167.522 84.8539H128.926L128.96 82.2069C128.96 82.0927 129.094 70.6646 129.094 57.8324C129.094 46.1222 126.64 40.1831 121.792 40.1831C119.7 40.1831 118.748 40.902 118.211 41.4395C115.697 43.979 115.724 50.4825 115.75 55.7027V57.295C115.75 62.2263 114.416 70.4765 110.654 77.4973C105.786 86.5873 98.1626 91.391 88.6009 91.391H83.2903V139.743C85.8987 139.864 89.7072 140.234 92.101 141.329C93.8779 142.142 95.467 143.036 97.0026 143.902L97.0253 143.915C102.53 147.008 108.229 150.211 124.36 150.211H154.902C158.014 150.211 160.542 147.423 160.542 144.003C160.542 140.583 158.014 137.795 154.902 137.795H151.013C149.572 137.795 148.405 136.626 148.405 135.182C148.405 133.737 149.572 132.568 151.013 132.568H159.113C162.225 132.568 164.752 129.78 164.752 126.36C164.752 122.941 162.225 120.153 159.113 120.153H155.171C153.729 120.153 152.562 118.984 152.562 117.539C152.562 116.095 153.729 114.926 155.171 114.926H163.318C166.429 114.926 168.957 112.137 168.957 108.718C168.957 105.298 166.429 102.51 163.318 102.51H159.744C158.302 102.51 157.135 101.341 157.135 99.8965C157.135 98.452 158.302 97.283 159.744 97.283Z" fill="#64A553"/>
</svg>
